<?xml version="1.0" encoding="utf-8"?>
<!-- Generator: Adobe Illustrator 18.1.1, SVG Export Plug-In . SVG Version: 6.00 Build 0)  -->
<svg version="1.1" id="Layer_1" xmlns="http://www.w3.org/2000/svg" xmlns:xlink="http://www.w3.org/1999/xlink" x="0px" y="0px"
	 viewBox="-255 347 100 100" style="enable-background:new -255 347 100 100;" xml:space="preserve">
<style type="text/css">
	.st0{fill:#BB9D6E;}
</style>
<g id="Your_Icon_2_">
	<path class="st0" d="M-228,427.9c0.8,0.1,1.5-0.5,1.7-1.3c-0.1,0.9,0.6,1.6,1.4,1.7c0.9,0.1,1.6-0.6,1.7-1.4
		c0.1-0.9,0.3-3.3,0.4-4.1c0,0,0,0,0.1,0c5.6,0.5,11.9-3.7,13.1-12.5c0.5-3.8-0.4-7.6-2.8-10.7c-1.6-2.1-3.6-3.7-6-4.6
		c0.2-0.3,0.3-0.7,0.4-1.1c0.1-1-0.1-2-0.7-2.8c-0.6-0.8-1.5-1.3-2.5-1.5c-1.9-0.3-3.7,0.9-4.2,2.7c0,0.2-0.1,0.3-0.1,0.5
		c-0.1,0.4,0,0.8,0,1.2c-0.4,0-0.8,0.1-1.2,0.2l-1-2.7c1-0.7,1.8-1.7,2.1-3c0.2-0.6,0.2-1.2,0.2-1.9l-0.5-6.9c0-0.6-0.2-1.3-0.5-1.8
		l3.7-3.1c0.1,0,0.2,0.1,0.3,0.1c1.3,0.6,2.8,0.7,4.2,0.3l6.6-2.2c1.7-0.6,3-2,3.5-3.7c0,0,0,0,0,0l3.3-0.1c0.5,1.3,1.6,2.4,3,3
		l6.4,2.6c1.3,0.5,2.8,0.6,4.1,0l1.4,1.8c-0.3,0.5-0.5,1-0.7,1.5c-0.2,0.7-0.3,1.5-0.2,2.2l0.9,6.9c0.3,2.1,1.7,3.7,3.5,4.4
		l-0.1,2.3c-4.8,0.2-9.5,2.7-12,7.2c-0.8,1.4-1.4,2.8-1.8,4.2c-1.7,6,0.6,11.3,4.4,13.8c0,0,0,0,0.1,0c-0.4,0.7-1.7,2.7-2.2,3.5
		c-0.5,0.7-0.2,1.7,0.5,2.2c0.7,0.5,1.7,0.2,2.2-0.5l0,0c-0.1,0.1-0.1,0.2-0.1,0.3c-0.2,0.7,0.1,1.4,0.7,1.8
		c0.7,0.5,1.7,0.2,2.2-0.5c0.2-0.3,1.7-2.7,2.3-3.6c0,0,0,0,0.1,0c5,2.5,12.4,1,16.9-6.7c3.4-5.8,2.2-13-2.4-17.5
		c0.3-0.3,0.5-0.6,0.8-0.9c0.2-0.3,0.3-0.6,0.4-0.9c0.5-1.7-0.2-3.5-1.8-4.3c-1.8-1.1-4.2-0.4-5.2,1.4c-0.2,0.3-0.3,0.6-0.4,0.9
		c0,0.1,0,0.2,0,0.2c-0.4-0.1-0.8-0.2-1.2-0.3l0.1-2.3c1.9-0.4,3.5-1.9,4.1-3.8c0.2-0.7,0.3-1.5,0.2-2.2l-0.9-6.9
		c-0.4-3-3.2-5.1-6.2-4.7c-0.5,0.1-1,0.2-1.4,0.4l-1.4-1.8c0.2-0.3,0.4-0.7,0.6-1c1.2-2.8-0.2-6-3-7.1l-6.4-2.6
		c-1.4-0.6-2.8-0.6-4.2,0c-1.4,0.6-2.4,1.6-3,3c-0.1,0.2-0.1,0.4-0.2,0.6c0,0.1-0.1,0.3-0.1,0.4l-3,0.1c0,0,0-0.1,0-0.1
		c-0.5-1.4-1.5-2.5-2.8-3.1c-1.3-0.6-2.8-0.7-4.2-0.3l-6.6,2.2c-1.7,0.6-3,2-3.5,3.7c-0.3,1.1-0.3,2.2,0.1,3.3
		c0.1,0.3,0.2,0.5,0.3,0.7l-3.6,2.9c-1-0.6-2.1-1-3.3-0.9c-2.3,0.2-4.3,1.7-4.9,4c-0.2,0.6-0.2,1.2-0.2,1.9l0.5,6.9
		c0.2,3,2.7,5.2,5.6,5.1l1,2.7c-3.8,1.7-6.9,5-8,9.2c-0.2,0.6-0.3,1.3-0.4,1.9c-1.2,8.8,3.7,14.6,9.2,15.7c0,0,0,0,0.1,0
		c-0.1,1-0.4,3.9-0.4,4.3C-229.5,427-228.9,427.8-228,427.9z M-176.2,414c-2.7,4.6-7.9,7.9-12.8,5.4c-1.5-0.8-3.3-0.3-4,1
		c0.7-1.3,0.2-3.1-1.2-4c-4.6-3-4.3-9.2-1.6-13.8c3.1-5.4,10.1-7.2,15.5-4.1C-174.9,401.7-173.1,408.6-176.2,414z M-179,394.9
		c0.2-0.3,0.6-0.4,0.9-0.2c0.3,0.2,0.4,0.5,0.3,0.8c0,0.1,0,0.1-0.1,0.2c-0.2,0.3-0.6,0.4-0.9,0.2c0,0,0,0,0,0c0,0,0,0,0,0
		C-179.1,395.6-179.2,395.2-179,394.9z M-183,379.3l0.9,6.9c0,0.3,0,0.6-0.1,1c-0.2,0.5-0.5,1-0.9,1.3l0.1-2.2
		c0-0.9-0.6-1.6-1.5-1.6c-0.7,0-1.4,0.5-1.6,1.1c0,0.1-0.1,0.2-0.1,0.4l-0.1,1.9c-0.3-0.3-0.5-0.7-0.5-1.2l-0.9-6.9
		c0-0.2,0-0.3,0-0.5l1.1,1.4c0.5,0.7,1.5,0.8,2.2,0.3c0.7-0.5,0.8-1.5,0.3-2.2l-1.3-1.6C-184.2,377.3-183.2,378.1-183,379.3z
		 M-200.7,364.9c0.6-0.2,1.2-0.2,1.8,0l6.4,2.6c1,0.4,1.6,1.5,1.4,2.5l-0.8-1c-0.5-0.7-1.5-0.8-2.2-0.3c-0.3,0.2-0.4,0.5-0.5,0.8
		c-0.1,0.5,0,1,0.3,1.4l0.8,1c-0.3,0-0.5-0.1-0.8-0.2l-6.4-2.6c-0.1-0.1-0.3-0.1-0.4-0.2l1.2,0c0.9,0,1.5-0.7,1.5-1.6
		c0-0.9-0.7-1.6-1.6-1.5l-1.9,0C-201.6,365.5-201.2,365.1-200.7,364.9z M-220.8,367.7l6.6-2.2c0.6-0.2,1.2-0.2,1.8,0.1
		c0.3,0.1,0.5,0.3,0.7,0.5l-1.2,0c-0.7,0-1.3,0.5-1.5,1.1c0,0.1-0.1,0.3-0.1,0.5c0,0.9,0.7,1.6,1.6,1.5l1.2,0
		c-0.3,0.3-0.6,0.5-1,0.7l-6.6,2.2c-0.2,0.1-0.3,0.1-0.5,0.1l1.1-0.9c0.7-0.5,0.8-1.5,0.2-2.2c-0.5-0.7-1.5-0.8-2.2-0.2l-1.7,1.4
		C-222.5,369.3-221.8,368.1-220.8,367.7z M-233.3,387l-0.5-6.9c-0.1-1.3,0.9-2.4,2.2-2.5c0.1,0,0.3,0,0.4,0l-1.1,0.9
		c-0.3,0.2-0.4,0.5-0.5,0.8c-0.1,0.5,0,1,0.3,1.4c0.5,0.7,1.5,0.8,2.2,0.2l1.2-1l0.4,6.8c0,0.3,0,0.5-0.1,0.8
		c-0.1,0.2-0.2,0.4-0.3,0.6l-0.6-1.5c-0.3-0.8-1.2-1.2-2-0.9c-0.5,0.2-0.8,0.6-1,1c-0.1,0.3-0.1,0.6,0,1l0.5,1.3
		C-232.7,388.6-233.2,387.9-233.3,387z M-222.4,393.6c-0.1-0.1-0.2-0.3-0.1-0.5c0-0.4,0.4-0.6,0.8-0.6c0.2,0,0.4,0.2,0.4,0.3
		c0.1,0.1,0.2,0.3,0.1,0.5c0,0,0,0.1,0,0.1c-0.1,0.3-0.4,0.5-0.7,0.5l0,0c0,0,0,0,0,0C-222.2,393.9-222.3,393.7-222.4,393.6z
		 M-235.2,406.6c0.9-6.2,6.6-10.5,12.8-9.6c3,0.4,5.6,2,7.5,4.4c1.8,2.4,2.6,5.4,2.2,8.4c-1,6.9-5.7,10.2-9.8,9.8
		c-1.7-0.1-3.1,0.9-3.4,2.4c0.2-1.5-0.9-2.9-2.6-3.2C-233.8,417.7-235.9,411.9-235.2,406.6z"/>
</g>
</svg>
