<?xml version="1.0" encoding="utf-8"?>
<!-- Generator: Adobe Illustrator 18.1.1, SVG Export Plug-In . SVG Version: 6.00 Build 0)  -->
<svg version="1.1" id="Layer_1" xmlns="http://www.w3.org/2000/svg" xmlns:xlink="http://www.w3.org/1999/xlink" x="0px" y="0px"
	 viewBox="-255 347 100 100" style="enable-background:new -255 347 100 100;" xml:space="preserve">
<style type="text/css">
	.st0{fill:#BB9D6E;}
</style>
<g>
	<path class="st0" d="M-180.4,395.7C-180.4,395.7-180.3,395.7-180.4,395.7c4.6-1.4,9.4-3.2,13.9-5.7c7.3-4.3,11.1,0.2,8.4,6.9
		c-2.3,6.3-14.7,18.1-25.4,20.8c-4.1-2.9-12.2-4.9-21.5-4.9c-9.3,0-17.4,2-21.5,4.9c-10.7-2.7-23.1-14.5-25.4-20.8
		c-2.7-6.7,1-11.1,8.4-6.9c4.6,2.5,9.3,4.4,13.9,5.8c9.8,3,18.9,3.7,23.6,3.7l2.6,0C-198.7,399.4-189.9,398.6-180.4,395.7z"/>
	<g id="XMLID_1_">
		<path class="st0" d="M-193.6,365.9c3.8,1.9,10.1,19.9,12.5,27.3c-9.3,2.7-17.7,3.4-22.3,3.5l-2.6,0c-4.6,0-13.3-0.7-22.8-3.5
			c2.4-7.4,8.7-25.4,12.5-27.4c4.4-2.2,8.2,1.4,11.2,1.8h-0.6c0.2,0,0.5,0,0.7,0c0.3,0,0.5,0,0.7,0h-0.6
			C-201.8,367.3-198,363.7-193.6,365.9z M-195.1,379.9c0-0.8-0.6-1.4-1.4-1.4c-0.7,0-1.3,0.5-1.4,1.3l-4.5-0.6l-2-4
			c0.5-0.2,0.9-0.7,0.9-1.3c0-0.8-0.6-1.4-1.4-1.4s-1.4,0.6-1.4,1.4c0,0.6,0.4,1.1,0.9,1.3l-2,4l-4.5,0.7c-0.1-0.7-0.7-1.3-1.4-1.3
			c-0.8,0-1.4,0.6-1.4,1.4c0,0.8,0.6,1.4,1.4,1.4c0.5,0,0.9-0.2,1.2-0.6l3.2,3.1l-0.8,4.7c-0.2-0.1-0.4-0.1-0.6-0.1
			c-0.8,0-1.4,0.6-1.4,1.4s0.6,1.4,1.4,1.4c0.8,0,1.4-0.6,1.4-1.4c0-0.3-0.1-0.6-0.3-0.8l4.2-2.2l4.2,2.2c-0.2,0.2-0.3,0.5-0.3,0.8
			c0,0.8,0.6,1.4,1.4,1.4c0.8,0,1.4-0.6,1.4-1.4s-0.7-1.4-1.4-1.4c-0.2,0-0.4,0-0.6,0.1l-0.8-4.6l3.2-3.1c0.3,0.4,0.7,0.6,1.2,0.6
			C-195.8,381.3-195.1,380.7-195.1,379.9z"/>
	</g>
</g>
</svg>
